<svg xmlns="http://www.w3.org/2000/svg" width="512" height="512" viewBox="0 0 512 512" version="1.1">
	<path d="M 102.500 197.289 L 90.500 202.533 90.236 234.767 C 90.091 252.495, 90.115 267, 90.289 267 C 90.463 267, 96.207 264.586, 103.053 261.637 L 115.500 256.273 115.764 224.137 C 115.909 206.461, 115.684 192.010, 115.264 192.022 C 114.844 192.034, 109.100 194.404, 102.500 197.289 M 73.750 223.818 L 61 243.052 61.003 275.276 L 61.006 307.500 74.017 287.960 L 87.029 268.421 86.764 236.502 L 86.500 204.584 73.750 223.818 M 182.326 217.034 C 163.030 220.896, 157.897 242.713, 172.756 257.705 C 174.825 259.792, 180.284 264.845, 184.887 268.934 C 193.790 276.842, 196 280.448, 196 287.064 C 196 295.660, 188.328 301.865, 179.240 300.619 C 171.424 299.548, 167.281 295.513, 166.272 287.991 C 165.863 284.939, 165.317 283.984, 164.112 284.214 C 162.895 284.446, 162.332 286.235, 161.814 291.511 C 160.778 302.079, 161.304 303.568, 166.817 305.677 C 172.422 307.821, 184.652 308.030, 190.381 306.080 C 192.515 305.353, 196.035 303.156, 198.203 301.198 C 205.954 294.195, 208.539 284.807, 205.550 274.523 C 204.124 269.619, 202.739 267.600, 196.680 261.591 C 192.731 257.674, 186.865 252.273, 183.645 249.587 C 174.237 241.740, 171.948 235.870, 175.566 228.872 C 180.468 219.393, 200 222.496, 200 232.754 C 200 235.459, 202.796 236.917, 204.107 234.896 C 204.605 234.128, 204.898 230.142, 204.756 226.038 L 204.500 218.576 201.281 217.921 C 194.856 216.612, 186.408 216.217, 182.326 217.034 M 442.043 217.139 C 429.399 219.235, 419.303 226.673, 413.584 238.105 C 409.111 247.045, 407.616 254.517, 408.300 264.500 C 409.014 274.903, 411.084 281.401, 416.060 288.851 C 420.588 295.632, 426.920 300.742, 435.042 304.168 C 439.914 306.223, 442.111 306.471, 455.500 306.485 C 468.534 306.498, 471.018 306.238, 474.454 304.500 C 479.030 302.185, 479.869 300.015, 480.248 289.500 C 480.450 283.889, 480.208 282.500, 479.028 282.500 C 478.120 282.500, 476.778 284.802, 475.528 288.500 C 473.724 293.837, 473.003 294.756, 469 296.817 C 465.029 298.862, 463.384 299.093, 455 298.780 C 446.793 298.475, 444.780 298.033, 440.212 295.533 C 430.737 290.350, 423.743 280.735, 421.009 269.132 C 419.203 261.469, 420.109 245.783, 422.695 239.949 C 427.760 228.519, 436.071 223.642, 450.500 223.635 C 461.681 223.629, 468.355 225.920, 471.725 230.920 C 472.976 232.777, 474 235.384, 474 236.714 C 474 238.043, 474.481 240.031, 475.070 241.130 C 475.924 242.726, 476.428 242.890, 477.570 241.942 C 478.650 241.046, 479 238.091, 479 229.878 C 479 223.895, 478.663 218.992, 478.250 218.982 C 477.837 218.972, 473.225 218.305, 468 217.500 C 457.478 215.878, 450.251 215.778, 442.043 217.139 M 235.509 218.250 C 235.273 218.938, 233.301 237.408, 231.125 259.295 C 228.745 283.243, 226.689 299.670, 225.963 300.545 C 225.298 301.345, 223.652 302, 222.304 302 C 220.508 302, 219.943 302.468, 220.190 303.750 C 220.488 305.296, 221.869 305.500, 232.014 305.500 C 241.331 305.500, 243.500 305.229, 243.500 304.064 C 243.500 303.274, 242.037 302.248, 240.250 301.785 C 237.062 300.959, 237 300.834, 236.989 295.221 C 236.971 285.970, 240.281 246.870, 241.010 247.721 C 241.377 248.149, 247.020 260.605, 253.550 275.401 C 265.556 302.603, 267.824 306.845, 269.729 305.667 C 270.308 305.310, 276.566 291.506, 283.636 274.993 C 290.705 258.480, 296.585 245.314, 296.701 245.735 C 297.598 248.985, 301.043 298.306, 300.577 301.229 C 299.832 305.905, 300.718 306.195, 314.500 305.792 C 322.452 305.560, 324.500 305.202, 324.500 304.045 C 324.500 303.155, 322.965 302.270, 320.550 301.769 C 315.798 300.781, 313.298 298.705, 312.578 295.146 C 312.283 293.691, 310.412 275.850, 308.420 255.500 C 306.429 235.150, 304.382 218.060, 303.872 217.522 C 303.268 216.886, 302.420 216.886, 301.438 217.522 C 300.610 218.060, 293.402 233.783, 285.421 252.461 C 277.440 271.140, 270.787 286.546, 270.636 286.698 C 270.484 286.849, 263.433 271.229, 254.965 251.986 C 242.868 224.495, 239.181 217, 237.754 217 C 236.755 217, 235.745 217.563, 235.509 218.250 M 333.667 218.667 C 332.214 220.119, 333.123 222, 335.277 222 C 336.530 222, 338.555 222.701, 339.777 223.557 L 342 225.113 342 259.932 C 342 279.082, 341.718 296.158, 341.374 297.879 C 340.886 300.321, 340.062 301.186, 337.624 301.818 C 335.906 302.263, 334.500 303.274, 334.500 304.064 C 334.500 305.263, 337.717 305.500, 354 305.500 C 373.316 305.500, 373.549 305.474, 378.688 302.765 C 390.997 296.275, 395.846 281.523, 389.674 269.344 C 387.044 264.153, 383.026 260.099, 377.870 257.433 L 374.980 255.938 377.077 253.719 C 380.523 250.073, 383.140 244.068, 383.657 238.622 C 384.515 229.574, 378.650 221.664, 369.118 219.016 C 365.121 217.906, 334.727 217.606, 333.667 218.667 M 354 239.500 L 354 255 359.777 255 C 363.292 255, 366.393 254.413, 367.694 253.502 C 370.906 251.252, 373.393 243.861, 372.603 238.917 C 370.998 228.880, 366.312 224.011, 358.250 224.004 L 354 224 354 239.500 M 43.750 250.682 L 31 256.233 31 288.117 C 31 305.652, 31.337 320.012, 31.750 320.026 C 32.163 320.041, 38.013 317.699, 44.750 314.822 L 57 309.590 57 277.295 C 57 259.533, 56.888 245.029, 56.750 245.065 C 56.612 245.101, 50.763 247.629, 43.750 250.682 M 354.015 278.134 C 354.024 287.685, 354.370 296.034, 354.786 296.687 C 356.877 299.976, 366.650 301.009, 372.510 298.560 C 383.347 294.032, 382.274 273.769, 370.713 264.595 C 367.595 262.121, 365.784 261.517, 360.463 261.179 L 354 260.767 354.015 278.134" stroke="none" fill="#20651f" fill-rule="evenodd"/>
</svg>